<svg xmlns="http://www.w3.org/2000/svg" width="180" height="47" viewBox="0 0 180 47">
  <g fill="none" fill-rule="evenodd" transform="translate(0 1)">
    <g transform="translate(.69 .23)">
      <rect width="44.83" height="44.83" stroke="#000" stroke-width=".602"/>
      <rect width="37.618" height="37.618" x="9.645" y="5.065" stroke="#000" stroke-width=".602" transform="rotate(-82.998 28.455 23.874)"/>
      <rect width="31.07" height="31.07" x="18.666" y="10.064" stroke="#000" stroke-width=".602" transform="rotate(-73.925 34.2 25.599)"/>
      <rect width="24.13" height="24.13" x="28.194" y="16.322" fill="#FF8000" fill-rule="nonzero" transform="rotate(-60.561 40.259 28.387)"/>
    </g>
    <g fill="#000" fill-rule="nonzero" transform="translate(65 3)">
      <path d="M13.75 1.96C14.62 2.7 15.05 3.72 15.05 5 15.05 5.42 15.02 5.81 14.95 6.17 14.71 7.61 14.1 8.77 13.12 9.67 12.14 10.57 10.86 11.12 9.29 11.34L12.86 18.71 10.25 18.71 6.85 11.41 4.37 11.41 3.08 18.71.77 18.71 3.91.84 9.79.84C11.57.84 12.88 1.21 13.75 1.96zM12.67 5.45C12.67 3.71 11.54 2.84 9.27 2.84L5.9 2.84 4.68 9.73 8.05 9.73C10.65 9.73 12.16 8.58 12.59 6.28 12.65 5.99 12.67 5.71 12.67 5.45zM30.28 1.54C31.41 2.16 32.28 3.03 32.89 4.15 33.5 5.27 33.8 6.58 33.8 8.07 33.8 8.78 33.74 9.46 33.62 10.12 33.32 11.83 32.7 13.35 31.76 14.68 30.82 16.02 29.65 17.05 28.24 17.8 26.83 18.54 25.29 18.92 23.61 18.92 22.06 18.92 20.71 18.61 19.58 18 18.45 17.38 17.58 16.51 16.98 15.39 16.38 14.27 16.08 12.97 16.08 11.5 16.08 10.77 16.14 10.08 16.26 9.42 16.56 7.71 17.18 6.19 18.12 4.86 19.06 3.53 20.24 2.49 21.66 1.74 23.08 1 24.62.62 26.3.62 27.82.61 29.14.92 30.28 1.54zM22.69 3.6C21.63 4.16 20.74 4.96 20.02 6.01 19.29 7.06 18.8 8.27 18.55 9.66 18.45 10.22 18.4 10.76 18.4 11.28 18.4 12.97 18.89 14.3 19.87 15.28 20.85 16.26 22.17 16.75 23.82 16.75 25.02 16.75 26.15 16.47 27.2 15.9 28.26 15.33 29.15 14.53 29.89 13.48 30.63 12.43 31.11 11.22 31.35 9.83 31.45 9.27 31.5 8.73 31.5 8.21 31.5 6.52 31.01 5.19 30.03 4.22 29.05 3.25 27.74 2.76 26.1 2.76 24.88 2.77 23.74 3.05 22.69 3.6z"/>
      <polygon points="37.52 16.91 43.86 16.91 43.53 18.71 34.89 18.71 38.03 .84 40.34 .84"/>
      <polygon points="48.52 16.91 54.86 16.91 54.53 18.71 45.89 18.71 49.03 .84 51.34 .84"/>
      <polygon points="62.33 .84 59.19 18.71 56.88 18.71 60.02 .84"/>
      <polygon points="76.77 18.71 74.46 18.71 67.67 4.59 65.19 18.71 62.88 18.71 66.02 .84 68.33 .84 75.12 14.98 77.6 .84 79.91 .84"/>
      <path d="M96.09,2.24 C97.31,3.29 98.02,4.68 98.24,6.42 L95.81,6.42 C95.59,5.34 95.05,4.47 94.18,3.81 C93.31,3.15 92.19,2.82 90.82,2.82 C89.6,2.82 88.47,3.1 87.41,3.67 C86.35,4.24 85.46,5.04 84.72,6.09 C83.99,7.14 83.49,8.37 83.24,9.79 C83.14,10.37 83.09,10.92 83.09,11.46 C83.09,13.15 83.58,14.47 84.57,15.41 C85.56,16.36 86.89,16.83 88.56,16.83 C89.66,16.83 90.71,16.59 91.7,16.12 C92.7,15.65 93.56,14.96 94.3,14.05 C95.03,13.15 95.57,12.09 95.91,10.87 L88.89,10.87 L89.19,9.15 L98.19,9.15 L97.81,11.28 C97.4,12.77 96.74,14.08 95.82,15.22 C94.9,16.36 93.77,17.26 92.42,17.91 C91.08,18.56 89.6,18.89 88,18.89 C86.5,18.89 85.2,18.59 84.1,17.99 C83,17.39 82.16,16.54 81.57,15.46 C80.98,14.37 80.68,13.11 80.68,11.67 C80.68,10.99 80.74,10.34 80.86,9.69 C81.16,7.93 81.81,6.37 82.79,5.01 C83.77,3.65 84.99,2.59 86.44,1.82 C87.89,1.05 89.47,0.669861095 91.18,0.669861095 C93.23,0.66 94.87,1.19 96.09,2.24 Z"/>
    </g>
    <g fill="#000" fill-rule="nonzero" transform="translate(65 26)">
      <polygon points="3.32 .87 6.08 16.18 14.29 .87 16.8 .87 7.1 18.73 4.19 18.73 .79 .86 3.32 .86"/>
      <polygon points="21.11 2.74 20.05 8.85 26.84 8.85 26.51 10.62 19.72 10.62 18.63 16.85 26.18 16.85 25.85 18.73 15.99 18.73 19.13 .86 28.99 .86 28.66 2.74 21.11 2.74"/>
      <path d="M41.78 1.98C42.65 2.72 43.09 3.74 43.09 5.02 43.09 5.44 43.06 5.83 42.99 6.19 42.75 7.63 42.14 8.79 41.17 9.69 40.19 10.59 38.91 11.14 37.34 11.36L40.91 18.74 38.3 18.74 34.9 11.44 32.42 11.44 31.13 18.74 28.82 18.74 31.96.87 37.84.87C39.6.87 40.91 1.24 41.78 1.98zM40.7 5.48C40.7 3.74 39.57 2.87 37.3 2.87L33.93 2.87 32.71 9.76 36.08 9.76C38.68 9.76 40.19 8.61 40.62 6.31 40.68 6.01 40.7 5.73 40.7 5.48zM54.74 16.67C54.23 17.34 53.55 17.88 52.69 18.29 51.83 18.7 50.82 18.91 49.67 18.91 48.44 18.91 47.38 18.69 46.5 18.24 45.62 17.79 44.96 17.19 44.51 16.44 44.06 15.69 43.85 14.85 43.86 13.92L46.32 13.92C46.29 14.43 46.38 14.92 46.61 15.4 46.84 15.88 47.21 16.28 47.73 16.59 48.25 16.9 48.91 17.06 49.72 17.06 50.82 17.06 51.68 16.73 52.32 16.07 52.95 15.41 53.27 14.6 53.27 13.64 53.27 13 53.11 12.47 52.78 12.06 52.45 11.65 52.05 11.32 51.56 11.07 51.08 10.83 50.41 10.54 49.57 10.22 48.61 9.86 47.84 9.54 47.28 9.23 46.71 8.93 46.23 8.5 45.84 7.95 45.44 7.4 45.24 6.69 45.24 5.81 45.24 5.42 45.27 5.03 45.34 4.64 45.54 3.44 46.18 2.47 47.25 1.74 48.32 1 49.66.64 51.27.64 53.08.64 54.45 1.08 55.39 1.95 56.33 2.82 56.82 3.9 56.87 5.18L54.41 5.18C54.39 4.47 54.12 3.85 53.6 3.3 53.08 2.76 52.27 2.49 51.19 2.49 50.18 2.49 49.35 2.75 48.72 3.28 48.09 3.8 47.77 4.56 47.77 5.56 47.77 6.15 47.93 6.64 48.24 7.03 48.55 7.42 48.94 7.73 49.41 7.96 49.87 8.19 50.52 8.45 51.35 8.76 52.31 9.11 53.09 9.45 53.68 9.76 54.27 10.07 54.77 10.52 55.19 11.09 55.6 11.67 55.81 12.41 55.81 13.32 55.81 13.66 55.77 14.06 55.68 14.54 55.56 15.29 55.25 16 54.74 16.67z"/>
      <polygon points="63.39 .87 60.25 18.74 57.94 18.74 61.08 .87 63.39 .87"/>
      <path d="M78.95,1.56 C80.08,2.18 80.95,3.05 81.56,4.17 C82.17,5.29 82.47,6.6 82.47,8.09 C82.47,8.8 82.41,9.48 82.29,10.14 C81.99,11.85 81.36,13.37 80.43,14.7 C79.49,16.04 78.32,17.07 76.91,17.82 C75.5,18.56 73.96,18.94 72.29,18.94 C70.74,18.94 69.39,18.63 68.26,18.02 C67.13,17.4 66.26,16.53 65.66,15.41 C65.06,14.29 64.76,12.99 64.76,11.52 C64.76,10.79 64.82,10.1 64.94,9.44 C65.24,7.73 65.87,6.21 66.8,4.88 C67.74,3.55 68.92,2.51 70.34,1.76 C71.76,1.02 73.3,0.64 74.98,0.64 C76.49,0.64 77.81,0.95 78.95,1.56 Z M71.36,3.63 C70.3,4.19 69.41,4.99 68.69,6.04 C67.96,7.09 67.47,8.3 67.22,9.69 C67.12,10.25 67.07,10.79 67.07,11.31 C67.07,13 67.56,14.33 68.54,15.31 C69.52,16.29 70.84,16.78 72.49,16.78 C73.69,16.78 74.82,16.5 75.87,15.93 C76.93,15.36 77.82,14.56 78.56,13.51 C79.3,12.46 79.78,11.25 80.02,9.86 C80.12,9.3 80.17,8.76 80.17,8.24 C80.17,6.55 79.68,5.22 78.7,4.25 C77.72,3.28 76.41,2.79 74.77,2.79 C73.55,2.79 72.41,3.07 71.36,3.63 Z"/>
      <polygon points="97.15 18.73 94.84 18.73 88.05 4.61 85.57 18.73 83.26 18.73 86.4 .86 88.71 .86 95.5 15 97.98 .86 100.29 .86"/>
      <path d="M112,16.67 C111.49,17.34 110.81,17.88 109.95,18.29 C109.09,18.7 108.08,18.91 106.93,18.91 C105.7,18.91 104.64,18.69 103.76,18.24 C102.88,17.79 102.22,17.19 101.77,16.44 C101.32,15.69 101.11,14.85 101.12,13.92 L103.58,13.92 C103.55,14.43 103.64,14.92 103.87,15.4 C104.1,15.88 104.47,16.28 104.99,16.59 C105.51,16.9 106.17,17.06 106.98,17.06 C108.08,17.06 108.94,16.73 109.58,16.07 C110.21,15.41 110.53,14.6 110.53,13.64 C110.53,13 110.37,12.47 110.04,12.06 C109.71,11.65 109.31,11.32 108.82,11.07 C108.34,10.83 107.67,10.54 106.83,10.22 C105.87,9.86 105.1,9.54 104.54,9.23 C103.97,8.93 103.49,8.5 103.1,7.95 C102.7,7.4 102.5,6.69 102.5,5.81 C102.5,5.42 102.53,5.03 102.6,4.64 C102.8,3.44 103.44,2.47 104.51,1.74 C105.58,1 106.92,0.64 108.53,0.64 C110.34,0.64 111.71,1.08 112.65,1.95 C113.59,2.82 114.08,3.9 114.13,5.18 L111.67,5.18 C111.65,4.47 111.38,3.85 110.86,3.3 C110.34,2.76 109.53,2.49 108.45,2.49 C107.44,2.49 106.61,2.75 105.98,3.28 C105.35,3.8 105.03,4.56 105.03,5.56 C105.03,6.15 105.19,6.64 105.5,7.03 C105.81,7.42 106.2,7.73 106.67,7.96 C107.13,8.19 107.78,8.45 108.61,8.76 C109.57,9.11 110.35,9.45 110.94,9.76 C111.53,10.07 112.03,10.52 112.45,11.09 C112.86,11.67 113.07,12.41 113.07,13.32 C113.07,13.66 113.03,14.06 112.94,14.54 C112.82,15.29 112.51,16 112,16.67 Z"/>
    </g>
  </g>
</svg>
