<svg version="1" xmlns="http://www.w3.org/2000/svg" width="933.333" height="933.333" viewBox="0 0 700.000000 700.000000"><path d="M59.9 93.8l-2.6.3V602l3.1.1c3.9.1 503.8.1 504.9 0 .4-.1.7-.6.7-1.2s10.4-19.6 23.2-42.3c12.7-22.6 24.2-43.1 25.6-45.6 1.4-2.5 2.8-5 3.2-5.5.4-.6 2.1-3.5 3.7-6.5 3.6-6.6 12.6-22.6 30.3-54 7.4-12.9 14.4-25.5 15.8-28 1.3-2.5 3.9-7 5.7-10 6.6-11.2 23.7-42.1 23.3-42.4-.1-.1-12.6-7.1-27.6-15.5-15-8.5-27.5-15.8-27.8-16.2-.3-.5 2.7-12.1 6.6-25.7 11.6-39.9 14-48.5 13.7-48.8-.2-.2-27.5-8.2-32.2-9.4-1.6-.4-6.9-2-11.8-3.4-4.8-1.4-8.9-2.6-9.1-2.6-.3 0-.3-1-.1-2.3.2-1.2 1.6-11.7 3-23.2 1.4-11.6 2.7-22.6 3-24.5.2-1.9.7-5.8 1-8.5.4-2.8.8-6.2 1.1-7.8.3-1.7 0-2.7-.8-2.8-.7 0-2-.2-2.8-.4-.8-.1-4.5-.6-8.2-.9-3.7-.4-7.7-.9-9-1.1-1.3-.2-5-.7-8.3-1-3.3-.4-7.1-.9-8.5-1-1.4-.2-4.9-.6-7.7-1l-5.3-.6-.1-15.2c0-8.4-.1-25.5-.2-38.1l-.2-22.9-251.5-.1c-138.3-.1-252.7 0-254.1.2zm499.1 41v34.3l-3.2-.5c-3.8-.5-9.4-1.3-15.8-2-2.5-.3-13.7-1.7-25-3.1-11.3-1.4-22.7-2.8-25.4-3.1-2.7-.3-5.6-.7-6.5-.9-.9-.1-4.5-.6-8.1-1-3.6-.3-7.6-.8-9-1-1.4-.2-4.7-.6-7.5-.9-4.9-.6-7.7-1-16-2-2.2-.3-6-.8-8.5-1.1-2.5-.3-6.1-.7-8-1-1.9-.3-11.1-1.4-20.5-2.5-9.3-1.1-18.6-2.2-20.5-2.5-1.9-.2-5.7-.7-8.5-1-2.7-.3-6.1-.7-7.5-1-1.4-.2-5.2-.7-8.5-1-3.3-.3-6.7-.8-7.5-1-.8-.2-4.6-.7-8.5-1-3.8-.4-7.2-.8-7.5-1-.3-.2-4.4-.7-9-1-4.7-.4-8.7-.8-9-1-.3-.2-3.2-.6-6.5-1-3.3-.3-7.1-.8-8.5-1-1.4-.2-5.2-.6-8.5-1-3.3-.3-7.1-.7-8.5-1-1.4-.2-4.5-.6-7-.9-2.5-.3-8.5-1-13.5-1.6-4.9-.6-11-1.3-13.5-1.6-2.5-.3-5.6-.7-7-.9-1.4-.3-5-.7-8-1-3-.3-7.3-.8-9.5-1.1-2.2-.3-5.1-.7-6.5-.9-1.4-.2-5-.7-8-1-3-.3-6.6-.8-8-1-1.4-.2-4.8-.7-7.7-1-5.9-.7-5.8-.9-6.8 9-.6 5.9-3.4 28.9-3.9 32.5-.3 1.4-.7 5.2-1.1 8.5-.3 3.3-.8 7.1-1 8.5-.2 1.4-.6 5-1 8-.3 3-.8 7.1-1 9-.3 1.9-.7 5.5-1 8-.8 6.5-1.4 11-2 15-.2 1.9-.7 5.7-1 8.5-.3 2.7-.8 6.8-1 9-1.2 8.6-1.5 11.2-2 16-.3 2.7-.8 6.6-1 8.5-.3 1.9-1.4 11.1-2.5 20.5-1.1 9.3-2.2 18.3-2.4 20-.3 1.6-.8 5.7-1.2 9-.3 3.3-.8 6.8-1 7.8-.2 1-.6 4.5-.9 7.8-.4 3.3-.8 6.9-1 8-.2 1.1-.7 4.7-1 8-.4 3.3-.8 6.9-1 7.9-.2 1-.7 5-1 8.7-.4 3.7-.8 7.5-1 8.3-.2.8-.7 4.6-1.1 8.5-.3 3.8-.7 7.2-.9 7.5-.2.3-.6 3.6-.9 7.5-.4 3.8-1.1 9.7-1.6 13-.5 3.3-1.2 8.5-1.5 11.5-.3 3-.8 6.6-1 8-.3 1.4-.7 5-1 8-.2 3-.7 7.1-1 9-.3 1.9-.7 5.5-1 8-.3 2.5-.8 6.7-1.1 9.5-.3 2.7-.7 6.1-.9 7.5-.5 3.1-3.2 25.5-4 33-.3 3-.7 6.2-1 7-.2.8-.6 4.2-1 7.5-.6 6.1-1.2 11.3-2 17.5-.3 1.9-.8 6.1-1.1 9.2l-.5 5.8 3.3.1c1.8 0 4.2.2 5.3.4 3.1.5 18.4 2.4 24.5 3 3 .4 6.2.8 7 1 .8.2 4.4.7 8 1 3.6.3 7.6.8 9 1 1.4.2 5 .7 8 1 3 .3 6.6.8 8 1 1.4.2 5.1.7 8.3 1 3.2.4 6.7.8 7.7 1 1 .2 5 .7 8.7 1 3.7.4 7.7.9 8.8 1.1 1.1.2 4.5.6 7.5 1 3 .3 6.6.7 8 .9 1.4.2 4.8.7 7.5 1 2.8.3 6.4.8 8 1 1.7.2 5.5.6 8.5 1s6.6.8 8 1c1.4.2 8.4 1.1 15.5 2 14.1 1.6 20.3 2.4 25 3 1.7.2 5.3.7 8 1 2.8.3 6.1.7 7.5 1 1.4.2 5.2.7 8.4 1 6.1.6 6.9.7 20.1 2.4 8.7 1.2 39.6 5 46 5.7 2.2.3 9.2 1.1 15.5 1.9 6.3.8 13.8 1.7 16.5 2 9.5 1.1 20.5 2.4 24.5 3 1.4.2 5.2.7 8.5 1.1 3.3.3 6.7.8 7.5.9 1.3.2 14.1 1.8 16.2 1.9.3.1.9.3 1.1.6.3.3-101.1.5-225.4.5H64V348.4c0-135.9.2-247.3.4-247.5.3-.2 111.6-.4 247.5-.4H559v34.3zm-351.5-2.3c3.8.4 7.2.8 7.5 1 .3.1 3.7.6 7.6.9 3.9.4 8 .8 9.1 1 1.1.2 4.6.7 7.9 1.1 3.2.4 7 .8 8.4 1 1.4.2 4.9.6 7.8.9 4.6.5 56.2 6.9 65.2 8.1 1.9.2 6 .7 9 1 3 .3 6.2.8 7 1 .8.2 4.4.6 7.9 1 3.6.3 7.9.8 9.5 1 1.7.2 5.4.7 8.1 1 2.8.3 6.4.8 8 1 10.8 1.4 13.3 1.7 16 2 5.3.7 43.8 5.4 49 6 6.9.8 12.5 1.5 15.5 2 1.4.2 5.2.7 8.5 1 3.3.4 7.4.8 9 1 1.7.3 4.6.6 6.5.9 1.9.2 6.2.7 9.5 1.1 3.3.3 7.1.8 8.5 1.1 2.4.4 7.3 1 15.5 1.9 8.2 1 14.1 1.7 16.5 2 1.4.2 8.6 1.1 16 2 7.4.9 14.4 1.8 15.5 1.9 1.9.3 2 1.2 2.3 27.4.3 29.4.5 28.1-5.3 26.3-8.1-2.5-21.5-6.4-26-7.6-2.7-.7-15.8-4.5-29-8.3-13.2-3.9-43.8-12.7-68-19.7-24.2-7-48.5-14-54-15.7-5.5-1.6-10.7-3.1-11.5-3.2-1.4-.4-22-6.3-36.7-10.6l-6.2-1.8-1 3.1c-1.3 4.1-8.7 29.5-9.4 32.2-.5 2.1-15.8 55.2-25.4 88-3 10.4-5.7 19.9-6 21-.3 1.1-2.6 9-5 17.5-2.5 8.5-5.3 18.4-6.3 22-1 3.6-6.1 21.3-11.3 39.5-32 110.5-33.8 116.7-33.2 117.4.3.2 4.2 1.4 8.7 2.7 4.6 1.2 25.6 7.3 46.8 13.4 21.2 6.2 39.9 11.6 41.5 12 2.7.7 70.5 20.3 142.5 41.2 15.1 4.4 33.2 9.6 40.2 11.6s12.6 3.8 12.4 3.9c-.2.2-3.4-.1-7.2-.6-3.8-.6-9.6-1.3-12.9-1.6-3.3-.4-7.1-.8-8.5-1-1.4-.3-5-.7-8-1-3-.3-6.4-.7-7.5-.9-1.2-.2-4.8-.7-8-1.1-3.3-.3-7.6-.8-9.5-1.1-1.9-.3-5.3-.7-7.5-.9-12.5-1.5-22.4-2.7-25.5-3.1-5.2-.7-8.9-1.2-27.5-3.4-17.4-2.1-23.1-2.8-27.5-3.5-1.4-.2-5.2-.6-8.5-1s-7.5-.8-9.2-1.1c-5.9-.7-9.7-1.2-15.3-1.9-3-.3-6.6-.8-8-1-1.4-.2-5-.6-8-1-3-.3-19.7-2.4-37-4.5-17.3-2.2-34-4.2-37-4.5-3-.3-6.6-.8-8-1-1.4-.3-4.7-.7-7.5-1-9.3-1.1-13-1.5-16-1.9-1.6-.3-5.9-.8-9.5-1.1-3.5-.4-7.3-.9-8.4-1.1-1.1-.2-4.2-.6-7-.9-7.3-.8-21.7-2.6-24.6-3.1-1.4-.2-5.3-.7-8.7-1-5.5-.6-6.1-.9-5.7-2.8.2-1.1.6-4.8.9-8.1.7-6.9 1-9.2 1.9-16 .8-6 1.2-9 2.1-17.5.4-3.6.8-7.2 1-8 .3-1.5 1.2-8.8 2-16 .2-1.9.7-5.3.9-7.5 1.5-11.7 2.6-20.6 3.1-25.5.4-3 .9-7.1 1.1-9 .3-1.9.7-5.3.9-7.5.2-2.2.7-5.6.9-7.5.6-3.9 1.3-9.4 2-15.5.3-2.2 1.9-15 3.5-28.5 1.7-13.5 3.3-26.3 3.5-28.5 1-8.3 1.8-15.1 2.1-17.5.1-1.4.5-4.3.8-6.5.4-2.2.9-6.1 1.2-8.8.6-6 .8-7 5.5-45.7 4.4-35.6 4.8-38.4 5.5-45 .3-2.5.8-6.5 1.1-9 .3-2.5.7-5.6.9-7 .2-1.4.7-5.2 1-8.5.3-3.3.8-7.1 1-8.5.6-3.3 1-6.6 4-32 2.8-23.8 3.2-26.3 4.3-25.7.4.3 3.8.8 7.7 1.2zm153.3 47.9c69.6 20 106.8 30.8 109.7 31.7 1.7.5 8.5 2.5 15.3 4.4 24.6 7 36.8 10.6 42.7 12.3 3.3 1 11.5 3.4 18.3 5.3l12.2 3.4v51.4l-5.7-3.3c-3.2-1.8-8-4.5-10.6-6-2.7-1.4-11.6-6.5-19.8-11.1-8.2-4.7-21.6-12.3-29.8-17-8.2-4.6-17.1-9.7-19.8-11.1-2.6-1.5-6.2-3.5-7.9-4.5l-3-1.8-1.6 2.7c-.9 1.5-4.5 7.9-8 14.2-3.6 6.3-12.6 22.3-20 35.5-17.9 31.7-16.4 29.1-29.6 52.5-6.3 11.3-20.1 35.8-30.7 54.5-10.6 18.7-20.7 36.7-22.5 40-1.8 3.3-3.6 6.4-4 7-.4.5-2.1 3.5-3.7 6.5-1.7 3-5.2 9.2-7.7 13.7-4.2 7.5-5 10.3-2.7 10.3.4 0 6.1 3.1 12.7 6.8 6.5 3.8 14.4 8.2 17.4 9.9 3 1.7 13.6 7.6 23.5 13.3 9.9 5.6 20.5 11.6 23.5 13.2 3 1.7 8.4 4.8 12 6.8 3.6 2.1 20.7 11.8 38 21.6 17.3 9.7 33.1 18.6 35 19.7 1.9 1.1 5.5 3.1 8 4.5s10.3 5.8 17.3 9.8c7.1 4.1 13.4 7.4 14 7.4.5 0 .8.2.5.5-.3.3-7.7-1.5-16.4-4-8.8-2.5-16.6-4.8-17.4-5-1.6-.4-12.8-3.6-67.5-19.5-19.2-5.6-40.4-11.7-47-13.5-6.6-1.9-18.3-5.3-26-7.6-7.7-2.2-15.3-4.4-17-4.9-1.6-.4-7.9-2.2-14-4-6-1.7-16.4-4.7-23-6.6-6.6-1.9-14.5-4.2-17.5-5-3-.8-9.1-2.6-13.5-3.9-4.4-1.4-15.2-4.5-24-7.1-8.8-2.5-16.5-4.7-17.2-4.9-.8-.3-.9-1.3-.3-3.2 1.5-5 28.7-99.4 29.5-102.3.7-2.8 13.5-47.2 20.2-70 3.6-12.4 6.6-23.2 6.8-24 .2-.8 1.5-5.6 3-10.5 4-13.5 17-58.7 22.5-78 9.7-34.2 11.3-39.5 12.2-39.5.4 0 15.5 4.2 33.6 9.4zm220.2-1.9c6.3.8 14 1.7 17 2 11.7 1.2 11.3.9 10.5 7.3-.9 8.1-4.5 38.2-5 41.2-.2 1.4-.6 5.1-1 8.3-.4 3.8-1.1 5.7-1.8 5.4-.7-.2-8.7-2.6-17.9-5.2l-16.8-4.8-.1-14.3v-26.9V178c.1-1.3 1.6-1.3 15.1.5zm-6.7 63.6c3.9 1.1 9.5 2.7 12.2 3.4 14.5 4.1 14 3.8 13.9 7.6-.1 1.8-.4 5.4-.7 7.9-.4 2.5-.9 6.7-1.2 9.5-.3 2.7-.8 6.1-1 7.5-.2 1.4-.7 4.7-1 7.5-.3 2.7-.8 6.6-1 8.5-.3 1.9-.7 5.7-1 8.5-.3 2.7-.8 5.1-1 5.3-.1.2-6.4-3.1-13.9-7.3l-13.6-7.7-.1-12.4v-24.9c0-15.4 0-15.5.6-15.5.3 0 3.8.9 7.8 2.1zm50.3 14.4c8.8 2.5 18.9 5.5 22.5 6.5l6.6 2-9.4 32.7c-5.1 18-9.5 32.9-9.8 33.1-.4.4-11.3-5.4-17.7-9.5-2.1-1.2-4-2.3-4.2-2.3-.3 0-3.2-1.6-6.6-3.6-4.3-2.6-5.9-4.1-5.6-5.3.3-.9.8-4.8 1.1-8.6.3-3.9.8-7.7 1-8.5.2-.8.6-4.2 1-7.5.3-3.3.8-7.8 1.1-10 1-7.8 1.2-10.1 1.9-16.8.4-3.7 1.1-6.7 1.5-6.7.4 0 7.9 2 16.6 4.5z"/></svg>